<?xml version="1.0"?>
<svg xmlns="http://www.w3.org/2000/svg" viewBox="0 0 512 512" width="512" height="512"><g id="FilledOutline"><path d="M408,106V336H315.33a64,64,0,1,0-118.66,0H136V251.33a64,64,0,1,1,0-118.66V56H358A50,50,0,0,1,408,106Z" style="fill:#88bf40"/><path d="M154,488H352V395.33a64,64,0,1,1,0-118.66V200H291.33a64,64,0,1,0-118.66,0H104V438A50,50,0,0,0,154,488Z" style="fill:#0093ba"/><path d="M488,232l-24-24V136a24,24,0,0,0-24-24H408v32l-20-20a16.971,16.971,0,0,0-24,0h0a16.971,16.971,0,0,0,0,24l36,36h0a45.255,45.255,0,0,0,0,64l40,40Z" style="fill:#f5be9a"/><path d="M24,408l24-24V312a24,24,0,0,1,24-24h32v32l20-20a16.971,16.971,0,0,1,24,0h0a16.971,16.971,0,0,1,0,24l-36,36h0a45.255,45.255,0,0,1,0,64L72,464Z" style="fill:#f5be9a"/><path d="M356.471,388.7a8,8,0,0,0-7.473-.781,55.7,55.7,0,0,1-24.481,3.979c-28.226-1.721-51.271-25.2-52.466-53.457A56,56,0,0,1,349,284.085a8,8,0,0,0,11-7.415V200a8,8,0,0,0-8-8H302.211a72,72,0,1,0-140.419,0H104a8,8,0,0,0-8,8v80H72a32.036,32.036,0,0,0-32,32v68.687L18.343,402.343l11.314,11.314,24-24A8,8,0,0,0,56,384V312a16.019,16.019,0,0,1,16-16H96v20.687L82.343,330.343l11.314,11.314,36-36a8.97,8.97,0,0,1,12.686,12.686l-36,36a8,8,0,0,0,0,11.314,37.3,37.3,0,0,1,0,52.686l-40,40,11.314,11.314,19.61-19.61A58.094,58.094,0,0,0,154,496H352a8,8,0,0,0,8-8V395.33A8,8,0,0,0,356.471,388.7ZM344,480H154a42.047,42.047,0,0,1-42-42v-2.687l5.657-5.656a53.282,53.282,0,0,0,5.238-69.238l30.762-30.762a24.971,24.971,0,0,0-35.314-35.314L112,300.687V208h60.67a8,8,0,0,0,7.415-11,56,56,0,0,1,54.352-76.947c28.255,1.195,51.736,24.24,53.457,52.465A55.7,55.7,0,0,1,283.915,197a8,8,0,0,0,7.415,11H344v57.793a72,72,0,1,0,0,140.418Z"/><path d="M472,204.687V136a32.036,32.036,0,0,0-32-32H415.949A58.059,58.059,0,0,0,358,48H136a8,8,0,0,0-8,8v66.344A72.017,72.017,0,0,0,75.994,254.925l8.012-13.85A56.017,56.017,0,0,1,133,140.63a8,8,0,0,0,11-7.416V64H358a42.047,42.047,0,0,1,42,42v18.687l-6.343-6.344a24.971,24.971,0,1,0-35.314,35.314l30.762,30.762a53.282,53.282,0,0,0,5.238,69.238L400,259.313V328H326.218a72.595,72.595,0,0,0-.487-33.994l-15.5,3.988a56.329,56.329,0,0,1-2.3,35,8,8,0,0,0,7.416,11H408a8,8,0,0,0,8-8V275.313l18.343,18.344,11.314-11.314-40-40a37.3,37.3,0,0,1,0-52.686,8,8,0,0,0,0-11.314l-36-36a8.97,8.97,0,1,1,12.686-12.686l36,36,11.314-11.314L416,140.687V120h24a16.019,16.019,0,0,1,16,16v72a8,8,0,0,0,2.343,5.657l24,24,11.314-11.314Z"/><rect x="160" y="16" width="168" height="16"/><rect x="344" y="16" width="16" height="16"/></g></svg>
